# xmcd
#
# Track frame offsets:
#	150
#	12863
#	26303
#	38735
#	51142
#	65985
#	80468
#	93372
#	104699
#	118744
#	129167
#	140137
#	151654
#	161862
#	174985
#	184367
#
# Disc length: 2572 seconds
#
# Revision: 2
# Processed by: cddbd v1.5.1PL0 Copyright (c) Steve Scherf et al.
# Submitted via: Audio-CD-Archiv 4.00.507
#
DISCID=d50a0a10
DTITLE=Mitchell, Guy - The Collection - CD 2
DYEAR=2004
DGENRE=country
TTITLE0=unbekannt - My Heart Cries For You
TTITLE1=unbekannt - Pittsburgh, Pennsylvania
TTITLE2=unbekannt - There's Always Room At Our House
TTITLE3=unbekannt - Chicka-Boom
TTITLE4=unbekannt - Sparrow In The Tree Top
TTITLE5=unbekannt - Christopher Columbus
TTITLE6=unbekannt - My Truly, Truly Fair
TTITLE7=unbekannt - Call Rosie On The Phone
TTITLE8=unbekannt - Sunshine Guitar
TTITLE9=unbekannt - Emaline
TTITLE10=unbekannt - Meet The Sun Halfway
TTITLE11=unbekannt - Fun And Fancy Free
TTITLE12=unbekannt - Everybody Loves A Lover
TTITLE13=unbekannt - My Shoes Keep Walking Back To You
TTITLE14=unbekannt - Zip-A-Dee Doo-Dah
TTITLE15=unbekannt - Silver Moon Upon The Golden Sands
EXTD=
EXTT0=
EXTT1=
EXTT2=
EXTT3=
EXTT4=
EXTT5=
EXTT6=
EXTT7=
EXTT8=
EXTT9=
EXTT10=
EXTT11=
EXTT12=
EXTT13=
EXTT14=
EXTT15=
PLAYORDER=
